HIERARCHY
ROOT ui
{
	 OFFSET 0 0 0
	 CHANNELS 3 XPosition YPosition Z Position
	 EndSite
	 {
	 OFFSET 0 -1 0
	 }
}
ROOT li
{
	 OFFSET 0 0 0
	 CHANNELS 3 XPosition YPosition Z Position
	 EndSite
	 {
	 OFFSET 0 -1 0
	 }
}
ROOT ul
{
	 OFFSET 0 0 0
	 CHANNELS 3 XPosition YPosition Z Position
	 EndSite
	 {
	 OFFSET 0 -1 0
	 }
}
ROOT ll
{
	 OFFSET 0 0 0
	 CHANNELS 3 XPosition YPosition Z Position
	 EndSite
	 {
	 OFFSET 0 -1 0
	 }
}
ROOT tt
{
	 OFFSET 0 0 0
	 CHANNELS 3 XPosition YPosition Z Position
	 EndSite
	 {
	 OFFSET 0 -1 0
	 }
}
ROOT tb
{
	 OFFSET 0 0 0
	 CHANNELS 3 XPosition YPosition Z Position
	 EndSite
	 {
	 OFFSET 0 -1 0
	 }
}
ROOT td
{
	 OFFSET 0 0 0
	 CHANNELS 3 XPosition YPosition Z Position
	 EndSite
	 {
	 OFFSET 0 -1 0
	 }
}
ROOT v
{
	 OFFSET 0 0 0
	 CHANNELS 3 XPosition YPosition Z Position
	 EndSite
	 {
	 OFFSET 0 -1 0
	 }
}
ROOT bn
{
	 OFFSET 0 0 0
	 CHANNELS 3 XPosition YPosition Z Position
	 EndSite
	 {
	 OFFSET 0 -1 0
	 }
}
MOTION
Frames: 32
Frame Time: 0.002
0.014258627891540527	-0.0011283589601516725	0		0.5551112060546874	-2.566694091796875	0		-1.04015966796875	0.04499212265014649	0		-0.47567254638671874	-2.74096044921875	0		2.027172119140625	-1.52707080078125	0		3.495848876953125	-0.6434139404296875	0		4.97198291015625	-0.1879210510253906	0		5.7877412109375	0.21121937561035156	0		-0.28813485717773435	5.86417822265625	0		
-0.007404223918914795	-0.004937940120697022	0		0.552521484375	-2.567787841796875	0		-0.9711390991210938	0.019782999038696288	0		-0.4280370178222656	-2.72783154296875	0		2.07901416015625	-1.5649833984375	0		3.523233642578125	-0.64493212890625	0		4.97907421875	-0.20811460876464843	0		5.78732177734375	0.21283802795410156	0		-0.28782196044921876	5.86302880859375	0		
0.01312711524963379	5.670419931411743E-4	0		0.5410997314453125	-2.5597919921875	0		-0.9638964233398437	0.006483926773071289	0		-0.46796609497070313	-2.6874013671875	0		2.076143798828125	-1.5861138916015625	0		3.49472802734375	-0.6416613159179687	0		4.9816240234375	-0.20131040954589843	0		5.79059912109375	0.22975277709960937	0		-0.30254440307617186	5.854068359375	0		
-0.011486848831176759	-0.006288381099700928	0		0.5484315795898438	-2.570136474609375	0		-0.9746952514648437	-0.012582095146179199	0		-0.453207763671875	-2.669854248046875	0		2.103398681640625	-1.60176611328125	0		3.52807568359375	-0.6514083862304687	0		4.98112890625	-0.20054219055175782	0		5.79577783203125	0.20319114685058592	0		-0.42119790649414063	5.8446494140625	0		
-0.008886631011962891	-0.0026117680072784426	0		0.5608865356445313	-2.574616455078125	0		-0.9773389282226562	-0.02481900405883789	0		-0.49136578369140627	-2.648549560546875	0		2.0978486328125	-1.6069842529296876	0		3.551377685546875	-0.6670806274414063	0		4.989650390625	-0.20199928283691407	0		5.8033037109375	0.20406492614746094	0		-0.2853341064453125	5.8612958984375	0		
0.019762067794799804	6.079710125923157E-4	0		0.5566993408203125	-2.557902099609375	0		-0.9630253295898438	-0.04336808013916016	0		-0.4113804016113281	-2.62110546875	0		2.110108154296875	-1.627548583984375	0		3.52749658203125	-0.6321073608398438	0		4.984376953125	-0.19333514404296875	0		5.80302099609375	0.20506178283691406	0		-0.2866245422363281	5.86297900390625	0		
-0.005559699058532715	0.0025902481079101564	0		0.5522291870117187	-2.562252197265625	0		-0.9674117431640625	-0.045686168670654295	0		-0.465417236328125	-2.596672607421875	0		2.103780517578125	-1.6239017333984376	0		3.5137158203125	-0.6593795166015625	0		4.9840634765625	-0.1908406219482422	0		5.80277685546875	0.20588734436035155	0		-0.3000230407714844	5.85178515625	0		
0.016091350555419923	-0.0012142330408096314	0		0.5919009399414062	-2.5603486328125	0		-0.94606884765625	-0.06946234130859374	0		-0.39247415161132815	-2.577249755859375	0		2.112220458984375	-1.6385623779296874	0		3.530472412109375	-0.6552031860351563	0		4.97478955078125	-0.18930477905273438	0		5.79472509765625	0.20682879638671875	0		-0.43445660400390623	5.8333837890625	0		
-0.013181645393371582	-0.003308037042617798	0		0.5396707763671875	-2.5541083984375	0		-0.9775590209960937	-0.08549258422851562	0		-0.4583188781738281	-2.545765380859375	0		2.10989111328125	-1.64113916015625	0		3.544203857421875	-0.6560720825195312	0		4.97455322265625	-0.18900534057617188	0		5.79038818359375	0.22475788879394532	0		-0.433513427734375	5.83284326171875	0		
0.008577592849731445	-0.007261352062225342	0		0.5533377075195313	-2.55795849609375	0		-0.9817996826171875	-0.08900998687744141	0		-0.4643873596191406	-2.53227294921875	0		2.108469970703125	-1.652814697265625	0		3.53252880859375	-0.6216361083984375	0		4.97181689453125	-0.159759765625	0		5.797587890625	0.25592631530761717	0		-0.2991687927246094	5.8521767578125	0		
-0.010435792922973633	3.367219865322113E-4	0		0.5291950073242188	-2.55230419921875	0		-0.9859725341796876	-0.09160399627685546	0		-0.4601925354003906	-2.505014404296875	0		2.13135693359375	-1.64794677734375	0		3.540086669921875	-0.6405888061523437	0		4.97757861328125	-0.16673887634277343	0		5.812462890625	0.25377415466308595	0		-0.29906515502929687	5.85249365234375	0		
0.011428258895874023	-0.0037786269187927244	0		0.5710659790039062	-2.5497509765625	0		-0.9512529907226562	-0.10488173675537109	0		-0.45019198608398436	-2.49392822265625	0		2.11502197265625	-1.6605556640625	0		3.544315185546875	-0.6195662231445312	0		4.96751708984375	-0.16555284118652344	0		5.80457373046875	0.2557955780029297	0		-0.3120936584472656	5.8409326171875	0		
-0.008651483535766601	-0.007326275825500488	0		0.5450023803710937	-2.546226806640625	0		-0.992318359375	-0.10706826019287109	0		-0.4421644592285156	-2.484895263671875	0		2.167795166015625	-1.6703128662109374	0		3.51729150390625	-0.6181351318359375	0		4.9626162109375	-0.15751625061035157	0		5.8160556640625	0.26908102416992186	0		-0.2987149963378906	5.8528828125	0		
0.011438742637634277	-0.0035788960456848143	0		0.5429198608398438	-2.548154541015625	0		-0.9813236083984375	-0.10914833831787109	0		-0.47989846801757813	-2.4642333984375	0		2.126730224609375	-1.6726861572265626	0		3.497444580078125	-0.6088801879882813	0		4.94365966796875	-0.15632260131835937	0		5.800396484375	0.271177978515625	0		-0.28335687255859376	5.861716796875	0		
-0.013462608337402343	-0.0022134459018707275	0		0.5210449829101562	-2.540850341796875	0		-0.981246337890625	-0.10914630889892578	0		-0.4259361877441406	-2.468085693359375	0		2.16752783203125	-1.688402587890625	0		3.535270263671875	-0.6245857543945312	0		4.94782861328125	-0.1505388641357422	0		5.8119619140625	0.2860103759765625	0		-0.2386766357421875	5.89001123046875	0		
0.023676685333251953	-0.0018948559761047363	0		0.5521846313476563	-2.537448486328125	0		-0.9699498901367187	-0.09840535736083984	0		-0.44858575439453124	-2.4508251953125	0		2.12892578125	-1.6689410400390625	0		3.514982421875	-0.5864327392578125	0		4.93231494140625	-0.12748820495605467	0		5.82542431640625	0.25745333862304687	0		-0.23942333984375	5.8909267578125	0		
-0.010113612174987793	4.5289498567581177E-4	0		0.5502870483398438	-2.54060498046875	0		-0.9449512329101563	-0.10996710205078125	0		-0.4114560546875	-2.452580810546875	0		2.1489560546875	-1.6774561767578124	0		3.517931884765625	-0.600695556640625	0		4.92942578125	-0.1316728057861328	0		5.815841796875	0.3006590576171875	0		-0.24114292907714843	5.89377734375	0		
0.012038627624511718	-0.004147991180419922	0		0.547439208984375	-2.544816162109375	0		-0.9807296142578125	-0.10966184997558594	0		-0.44211297607421873	-2.444355224609375	0		2.145062744140625	-1.6846533203125	0		3.492432861328125	-0.5825540161132813	0		4.9057705078125	-0.12356298828125	0		5.80816357421875	0.30222750854492186	0		-0.2834128723144531	5.8621796875	0		
-0.012686294555664062	-0.0030879809856414796	0		0.5477141723632812	-2.545142333984375	0		-0.944476806640625	-0.11056083679199219	0		-0.3919696960449219	-2.4534677734375	0		2.133379638671875	-1.6817808837890624	0		3.506676025390625	-0.5840770263671875	0		4.90602783203125	-0.12385731506347657	0		5.81618017578125	0.29970315551757815	0		-0.3105392150878906	5.840271484375	0		
0.009539944648742676	-0.007828923225402832	0		0.5490750122070313	-2.543548095703125	0		-0.9683369140625	-0.12059805297851563	0		-0.48834890747070314	-2.434362060546875	0		2.142601806640625	-1.688286376953125	0		3.496507568359375	-0.5502547607421875	0		4.894525390625	-0.11099574279785156	0		5.82191650390625	0.2712747192382812	0		-0.28299679565429686	5.86144482421875	0		
-0.013948103904724122	0.0040819091796875	0		0.5535308837890625	-2.539060302734375	0		-0.9599041748046875	-0.11420648193359376	0		-0.3990769958496094	-2.44221923828125	0		2.128227783203125	-1.671468994140625	0		3.502716552734375	-0.5587311401367188	0		4.88511572265625	-0.09419501495361328	0		5.82582470703125	0.2878638916015625	0		-0.3111128234863281	5.84141552734375	0		
0.013257962226867676	-0.00585600996017456	0		0.5519056396484375	-2.5425322265625	0		-0.96361328125	-0.1186900634765625	0		-0.44242019653320314	-2.427067626953125	0		2.128624267578125	-1.671927734375	0		3.497486328125	-0.5330609741210938	0		4.8675009765625	-0.09229637908935547	0		5.82607666015625	0.287252197265625	0		-0.2967751159667969	5.85066845703125	0		
-0.013225844383239746	0.0029916529655456543	0		0.5425045776367188	-2.53393017578125	0		-0.9672821655273437	-0.12223023223876953	0		-0.4178912353515625	-2.423025390625	0		2.142927734375	-1.68064306640625	0		3.46906689453125	-0.5210662231445312	0		4.867876953125	-0.09270404815673829	0		5.8263447265625	0.2866036376953125	0		-0.4318913269042969	5.83218408203125	0		
-0.015877657890319825	-5.772550106048584E-4	0		0.5160134887695312	-2.533107421875	0		-0.9668831787109375	-0.12288198852539063	0		-0.47439840698242186	-2.422774658203125	0		2.12058935546875	-1.667822998046875	0		3.480665283203125	-0.5097217712402343	0		4.8526328125	-0.06989036560058594	0		5.83374951171875	0.28392474365234377	0		-0.29642437744140626	5.8494619140625	0		
0.01850152587890625	-0.003755568981170654	0		0.553375	-2.544308837890625	0		-0.9583569946289062	-0.11670015716552734	0		-0.42301229858398437	-2.43223388671875	0		2.123134765625	-1.6644188232421875	0		3.480147216796875	-0.5072142333984375	0		4.8271455078125	-0.0639400520324707	0		5.83127197265625	0.2954344482421875	0		-0.281118408203125	5.85756396484375	0		
-0.003000838041305542	-1.0170000046491622E-4	0		0.5262512817382813	-2.5235400390625	0		-0.9498115844726562	-0.11055281829833985	0		-0.45231011962890627	-2.422477783203125	0		2.130781982421875	-1.6561151123046876	0		3.4580986328125	-0.47538961791992185	0		4.8327041015625	-0.056481502532958985	0		5.83643359375	0.27204037475585935	0		-0.28290716552734374	5.859896484375	0		
0.01750971221923828	0.0028818299770355226	0		0.5466873168945312	-2.53352880859375	0		-0.9534154052734375	-0.11524722290039062	0		-0.38489996337890625	-2.4342353515625	0		2.125500244140625	-1.64462841796875	0		3.43059228515625	-0.4744987487792969	0		4.81829833984375	-0.047722923278808595	0		5.840435546875	0.28848019409179687	0		-0.29691229248046874	5.84838916015625	0		
-0.0061427421569824215	-0.005476015090942383	0		0.5472872924804687	-2.5342265625	0		-0.9529421997070312	-0.11602359008789062	0		-0.38733538818359375	-2.436935791015625	0		2.114360595703125	-1.6250623779296876	0		3.442266357421875	-0.4632146911621094	0		4.81079931640625	-0.04607461547851562	0		5.8322470703125	0.2932625732421875	0		-0.2977364807128906	5.848662109375	0		
0.011349252700805664	-0.005471304893493652	0		0.5369967651367188	-2.528765869140625	0		-0.9524574584960938	-0.11681168365478516	0		-0.38672384643554686	-2.437693115234375	0		2.08511376953125	-1.6132275390625	0		3.426985107421875	-0.4495207214355469	0		4.7853896484375	-0.03915287017822266	0		5.83693701171875	0.30276348876953124	0		-0.2975775146484375	5.84791015625	0		
-0.010102730751037597	-0.0018749769926071167	0		0.5064741821289063	-2.539002197265625	0		-0.9479061889648438	-0.11366346740722656	0		-0.38814865112304686	-2.441421630859375	0		2.0769169921875	-1.598714111328125	0		3.42204150390625	-0.41398028564453127	0		4.7802109375	-0.017535043716430665	0		5.84876220703125	0.3120122375488281	0		-0.28325393676757815	5.8579423828125	0		
0.009561395645141602	0.009105886459350586	0		0.5532159423828125	-2.532400146484375	0		-0.9474150390625	-0.1144462890625	0		-0.38548284912109376	-2.439203857421875	0		2.070763427734375	-1.581224853515625	0		3.403521240234375	-0.41623260498046877	0		4.76990966796875	-0.003834511995315552	0		5.8341455078125	0.31359405517578126	0		-0.2840798034667969	5.85821142578125	0		
-0.014941781044006348	0.009768965721130372	0		0.5278803100585937	-2.52969287109375	0		-0.9388248901367188	-0.10833250427246094	0		-0.39302133178710935	-2.449816650390625	0		2.076418212890625	-1.5759027099609375	0		3.4215029296875	-0.3850220947265625	0		4.77038916015625	-0.004290586948394776	0		5.84945703125	0.31063006591796877	0		-0.4313820495605469	5.82769921875	0		
